<svg width="120" height="61" viewBox="0 0 120 61" fill="none" xmlns="http://www.w3.org/2000/svg">
<rect x="1.35046" y="1.82028" width="84.8905" height="57.1832" rx="5.30566" transform="rotate(0.033323 1.35046 1.82028)" fill="#4E598C" stroke="#293154" stroke-width="2.35807" stroke-linejoin="bevel"/>
<rect x="14.0845" y="26.5874" width="9.43228" height="9.43228" rx="4.71614" transform="rotate(90.0333 14.0845 26.5874)" fill="white"/>
<mask id="path-3-outside-1_9_1194" maskUnits="userSpaceOnUse" x="85.3675" y="6.19992" width="35.0279" height="48.0203" fill="black">
<rect fill="white" x="85.3675" y="6.19992" width="35.0279" height="48.0203"/>
<path fill-rule="evenodd" clip-rule="evenodd" d="M111.758 9.21525L88.3937 9.20166L88.3689 51.7772L111.733 51.7908C111.748 48.6492 114.305 46.1059 117.462 46.0906L117.48 14.9463C114.315 14.9272 111.756 12.3681 111.758 9.21552C111.758 9.21543 111.758 9.21534 111.758 9.21525Z"/>
</mask>
<path d="M111.758 9.21525L114.116 9.21662L114.117 6.85855L111.759 6.85718L111.758 9.21525ZM88.3937 9.20166L88.395 6.84359L86.037 6.84222L86.0356 9.20029L88.3937 9.20166ZM88.3689 51.7772L86.0108 51.7759L86.0095 54.1339L88.3675 54.1353L88.3689 51.7772ZM111.733 51.7908L111.732 54.1489L114.08 54.1503L114.091 51.8018L111.733 51.7908ZM117.462 46.0906L117.473 48.4486L119.819 48.4372L119.82 46.0919L117.462 46.0906ZM117.48 14.9463L119.838 14.9476L119.839 12.6024L117.494 12.5882L117.48 14.9463ZM111.759 6.85718L88.395 6.84359L88.3923 11.5597L111.756 11.5733L111.759 6.85718ZM86.0356 9.20029L86.0108 51.7759L90.727 51.7786L90.7517 9.20303L86.0356 9.20029ZM88.3675 54.1353L111.732 54.1489L111.734 49.4328L88.3703 49.4192L88.3675 54.1353ZM114.091 51.8018C114.1 49.9656 115.598 48.4577 117.473 48.4486L117.45 43.7325C113.012 43.7541 109.396 47.3329 109.375 51.7798L114.091 51.8018ZM119.82 46.0919L119.838 14.9476L115.122 14.9449L115.104 46.0892L119.82 46.0919ZM117.494 12.5882C115.614 12.5769 114.115 11.0598 114.116 9.21689L109.4 9.21415C109.397 13.6764 113.016 17.2775 117.466 17.3043L117.494 12.5882ZM114.116 9.21689C114.116 9.21685 114.116 9.2168 114.116 9.21676C114.116 9.21671 114.116 9.21666 114.116 9.21662L109.4 9.21388C109.4 9.21392 109.4 9.21397 109.4 9.21401C109.4 9.21406 109.4 9.2141 109.4 9.21415L114.116 9.21689Z" fill="#293154" mask="url(#path-3-outside-1_9_1194)"/>
<path fill-rule="evenodd" clip-rule="evenodd" d="M112.158 9.21602L22.618 9.16395C22.6159 12.327 19.6975 14.8894 16.0992 14.8874L16.0811 46.0315C19.6792 46.0336 22.5945 48.5991 22.5932 51.7619L111.575 51.8137C111.725 48.7563 114.303 46.3236 117.461 46.3255L117.478 46.3255L117.496 14.9277C114.533 14.6558 112.206 12.2096 112.158 9.21602Z" fill="white"/>
<line x1="80.9644" y1="10.3765" x2="80.9409" y2="50.6357" stroke="#4E598C" stroke-width="2.35807" stroke-linecap="square" stroke-dasharray="4.72 4.72"/>
<rect x="93.6628" y="23.5134" width="5.67499" height="5.67499" fill="#4E598C"/>
<rect x="101.753" y="23.5134" width="5.67499" height="5.67499" fill="#4E598C"/>
<rect x="93.6628" y="31.6033" width="5.67499" height="5.67499" fill="#4E598C"/>
<rect x="101.753" y="31.6033" width="2.05266" height="2.05266" fill="#4E598C"/>
<rect x="105.375" y="31.6033" width="2.05266" height="2.05266" fill="#4E598C"/>
<rect x="105.375" y="35.2258" width="2.05266" height="2.05266" fill="#4E598C"/>
<rect x="101.753" y="35.2258" width="2.05266" height="2.05266" fill="#4E598C"/>
<rect x="91.1875" y="21.0384" width="18.7154" height="18.7154" rx="1.14707" stroke="#4E598C" stroke-width="1.32819" stroke-linejoin="round" stroke-dasharray="14.85 14.85"/>
<path d="M33.2223 33.2157L33.2223 27.3441L31.1001 27.3441L31.1001 25.7524L37.2311 25.7524L37.2311 27.3441L35.1088 27.3441L35.1088 33.2157L33.2223 33.2157ZM39.8372 25.3397C39.8608 25.6227 39.8726 25.8585 39.8726 26.0471C39.8726 26.1572 39.8686 26.2711 39.8608 26.389C39.8608 26.4991 39.8529 26.6249 39.8372 26.7663C39.6721 26.7978 39.511 26.8214 39.3538 26.8371C39.1966 26.8528 39.0394 26.8607 38.8822 26.8607C38.7328 26.8607 38.5796 26.8528 38.4224 26.8371C38.273 26.8214 38.1197 26.7978 37.9625 26.7663C37.9468 26.6327 37.935 26.5109 37.9272 26.4008C37.9193 26.2829 37.9154 26.169 37.9154 26.0589C37.9154 25.9567 37.9193 25.8467 37.9272 25.7288C37.935 25.6109 37.9468 25.4812 37.9625 25.3397C38.1197 25.3004 38.2769 25.2768 38.4341 25.269C38.5992 25.2532 38.7603 25.2454 38.9175 25.2454C39.0669 25.2454 39.2162 25.2532 39.3656 25.269C39.5228 25.2768 39.68 25.3004 39.8372 25.3397ZM39.8372 33.2157L37.9507 33.2157L37.9507 27.4738L39.8372 27.4738L39.8372 33.2157ZM45.6111 31.5532L45.6111 33.086C45.4146 33.1646 45.1238 33.2235 44.7387 33.2628C44.3535 33.3021 43.9448 33.3218 43.5125 33.3218C42.8915 33.3218 42.3727 33.2353 41.9561 33.0624C41.5474 32.8895 41.2409 32.5908 41.0365 32.1663C40.84 31.7419 40.7378 31.1524 40.7299 30.3978C40.7299 29.6196 40.8361 29.0144 41.0483 28.5821C41.2684 28.1497 41.5867 27.8471 42.0033 27.6742C42.4199 27.5013 42.919 27.4148 43.5007 27.4148C43.8465 27.4148 44.212 27.4384 44.5972 27.4856C44.9823 27.5327 45.2967 27.5956 45.5404 27.6742L45.5522 29.2541L45.5168 29.2777C45.281 29.2305 45.0295 29.1952 44.7622 29.1716C44.495 29.148 44.2317 29.1362 43.9723 29.1362C43.4457 29.1362 43.0802 29.2345 42.8758 29.431C42.6714 29.6275 42.5692 29.9576 42.5692 30.4214C42.5692 30.7751 42.6125 31.0384 42.6989 31.2113C42.7854 31.3842 42.9308 31.4982 43.1352 31.5532C43.3395 31.6082 43.6186 31.6358 43.9723 31.6358C44.2474 31.6358 44.5107 31.624 44.7622 31.6004C45.0138 31.5768 45.281 31.5493 45.564 31.5179L45.6111 31.5532ZM48.5558 33.2157L46.6693 33.2157L46.6693 25.2808L48.5558 25.2808L48.5558 29.9026L48.5794 29.9026L50.065 27.4738L52.1401 27.4738L52.1401 27.5209L50.3951 30.2327L50.3951 30.2799L52.423 33.2157L50.2536 33.2157L48.5912 30.5628L48.5558 30.551L48.5558 33.2157ZM58.0601 33.027C57.84 33.1056 57.5335 33.1764 57.1405 33.2392C56.7553 33.2943 56.2955 33.3218 55.761 33.3218C55.085 33.3218 54.5073 33.2353 54.0278 33.0624C53.5562 32.8816 53.1985 32.579 52.9549 32.1545C52.7112 31.7222 52.5894 31.1248 52.5894 30.3624C52.5894 29.3248 52.8252 28.5742 53.2968 28.1104C53.7763 27.6467 54.5151 27.4148 55.5134 27.4148C56.2287 27.4148 56.7907 27.517 57.1994 27.7214C57.616 27.9257 57.9108 28.2166 58.0837 28.5938C58.2645 28.9633 58.3549 29.4034 58.3549 29.9144C58.3549 30.0637 58.347 30.2248 58.3313 30.3978C58.3234 30.5707 58.3038 30.7397 58.2723 30.9048L58.2252 30.9519L54.3461 30.9519C54.4012 31.2978 54.5623 31.5257 54.8295 31.6358C55.1047 31.7458 55.5488 31.8008 56.1619 31.8008C56.5706 31.8008 56.9086 31.793 57.1758 31.7772C57.4509 31.7537 57.73 31.7222 58.0129 31.6829L58.0601 31.7183L58.0601 33.027ZM56.716 29.7139C56.716 29.5253 56.6846 29.3641 56.6217 29.2305C56.5667 29.089 56.4527 28.9829 56.2798 28.9122C56.1068 28.8336 55.8514 28.7943 55.5134 28.7943C55.0182 28.7943 54.692 28.8807 54.5348 29.0537C54.3854 29.2187 54.3108 29.4388 54.3108 29.7139L56.716 29.7139ZM59.4757 31.4943L59.4757 29.0183L58.7683 29.0183L58.7683 27.4856L59.6525 27.4856L60.0062 26.0825L61.3621 26.0825L61.3621 27.4856L62.6473 27.4856L62.6473 29.0183L61.3621 29.0183L61.3621 31.0816C61.3621 31.3017 61.3896 31.455 61.4447 31.5414C61.4997 31.62 61.6255 31.6593 61.822 31.6593C61.9477 31.6593 62.0813 31.6554 62.2228 31.6475C62.3643 31.6318 62.5058 31.6161 62.6473 31.6004L62.6827 31.624L62.6827 33.1567C62.3054 33.2668 61.8062 33.3218 61.1853 33.3218C60.5643 33.3218 60.1242 33.1803 59.8648 32.8973C59.6054 32.6144 59.4757 32.1467 59.4757 31.4943Z" fill="#4E598C"/>
</svg>
